<?xml version="1.0" encoding="utf-8"?>
<!-- Generator: Adobe Illustrator 24.1.1, SVG Export Plug-In . SVG Version: 6.00 Build 0)  -->
<svg version="1.1" id="Layer_1" xmlns="http://www.w3.org/2000/svg" xmlns:xlink="http://www.w3.org/1999/xlink" x="0px" y="0px"
	 viewBox="0 0 314 332" style="enable-background:new 0 0 314 332;" xml:space="preserve">
<style type="text/css">
	.st0{fill:none;}
	.st1{font-family:'SWGDT';}
	.st2{font-size:466px;}
	.st3{letter-spacing:-3;}
	.st4{font-size:391px;}
	.st5{letter-spacing:-2;}
	.st6{display:none;}
	.st7{display:inline;}
	.st8{font-family:'MyriadCAD';}
	.st9{font-size:58px;glyph-orientation-vertical:0;writing-mode:tb;}
</style>
<g>
	<rect x="-23.73" y="9.15" class="st0" width="405.37" height="295.96"/>
	<text transform="matrix(1.1716 0 0 0.98 -23.727 278.5931)" class="st1 st2 st3">J</text>
</g>
<g>
	<rect x="12.84" y="83.84" class="st0" width="384.62" height="302"/>
	<text transform="matrix(1.25 0 0 1 12.8434 314.5251)" class="st1 st4 st5">C</text>
</g>
<g class="st6">
	<g class="st7">
		<path d="M185.48,58.45c-0.02-11.56,11.02-17.52,21.43-16.32c9.8,1.14,21.73,8.81,18.7,19.97c-2.52,9.29-12.74,14.27-22.02,14
			C193.36,75.81,185.5,67.89,185.48,58.45z M216.5,60.61c1.07-5.54-4.04-10.71-10.4-11.36c-5.29-0.54-12.14,2.56-12.29,9.37
			c-0.14,6.17,4.84,10.19,10.37,10.5C210.56,69.47,215.57,65.44,216.5,60.61z"/>
		<path d="M246.55,62.2c0.16-2.66-1.73-3.86-2.64-4.27c-2.15-0.98-3.73-0.03-4.14,1.23c-0.56,1.75,0.8,2.7,5.09,6.03
			c4.15,3.22,9.25,7.74,7.29,13.15c-2.19,6.04-9.31,7.54-15.41,5.03c-3.53-1.45-7.4-4.27-9.11-7.92c-1.34-2.86-1.06-5.26-0.75-7.12
			c3.33,0.87,4.39,1.27,8.03,2.65c0.01,1.48,0.16,4.25,3.78,5.68c2.83,1.12,4.42-0.17,4.77-1.37c0.63-2.14-1.19-3.61-6.95-7.72
			c-3.82-2.73-6.36-6.1-4.83-11.05c1.81-5.87,8.86-8.19,14.69-5.56c5.44,2.45,10.49,10.07,8.79,15.81
			C251.72,64.81,249.98,63.87,246.55,62.2z"/>
		<path d="M292.11,84.94c-5.28,7.84-11.09,15.44-16.99,22.81c-1.9-2.35-3.24-4.08-5.17-6.15c0.88-1.15,1.29-1.68,2.06-2.68
			c-0.03-0.03-0.05-0.05-0.08-0.08c-1.94,0.42-4.98,1.07-8.74-1.86c-4.47-3.48-6.04-7.57-6.7-10.25c-0.89-4.09,0.67-8.2,1.52-10.27
			c2.14-5.21,3.08-7.6,6.06-14.17c3.64,2.39,5.44,3.66,8.85,6.17c-3.4,6.12-4.43,8.13-6.86,12.63c-0.96,1.79-3.51,6.69,2.02,10.96
			c4,3.09,7.39,1.32,9.61-1.66c2.87-3.85,4-5.42,8.12-11.42C288.31,81.27,289.62,82.59,292.11,84.94z"/>
		<path d="M290.02,108.04c-1.01,1.52-2.41,6.29-0.18,9.57c1.39,2.04,3.45,2.77,5.81,2.2c1.4,2.2,2.12,3.36,3.76,6.03
			c-4.46,1.75-11.62,0.68-14.61-3.42c-3.86-5.29-2.2-16.1,2.42-21.95c4.48-5.67,15-8.24,20.27-1.22c5.45,7.26,1,19-3.78,23.8
			c-0.89,0.89-1.78,1.46-2.52,1.86C296.32,116.53,294.98,114.39,290.02,108.04z M301.74,115.57c2.91-3.76,2.88-8,0.84-10.69
			c-1.55-2.05-5.11-3.75-9.23-0.87C297.25,108.59,298.72,110.51,301.74,115.57z"/>
	</g>
</g>
<g class="st6">
	<g class="st7">
		<path d="M213.72,35.71c0.02,6.68,0.03,10.24,0.04,17.02c0.02,6.23-0.13,10.53-0.45,13.12c-0.31,2.6-1,4.82-2.05,6.73
			c-1.06,1.91-2.42,3.15-4.1,3.89c-1.68,0.74-3.63,1.03-5.85,0.9c-2.48-0.15-4.6-0.64-6.36-1.56c-1.75-0.92-3.13-2.29-4.11-4.13
			c-0.98-1.84-1.69-4.08-2.11-6.7c-0.42-2.62-0.64-6.55-0.64-11.79c0-6.33,0-9.51,0-15.84c0-5.74,0.39-10.23,1.15-13.46
			c0.77-3.23,2.15-5.82,4.11-7.72c1.96-1.9,4.45-2.77,7.43-2.77c2.5,0,4.62,0.54,6.37,1.61c1.76,1.07,3.1,2.47,4.05,4.31
			c0.95,1.84,1.6,3.84,1.95,6C213.52,27.48,213.7,30.88,213.72,35.71z M202.79,30.82c0-3.26-0.11-5.23-0.31-6.04
			c-0.2-0.81-0.63-1.19-1.29-1.17c-0.66,0.03-1.1,0.45-1.33,1.27c-0.22,0.82-0.33,2.8-0.33,6.03c0.01,9.68,0.01,19.36,0.02,29.03
			c0,2.98,0.11,4.87,0.34,5.77c0.22,0.9,0.66,1.37,1.31,1.43c0.67,0.07,1.1-0.28,1.31-1.06c0.21-0.78,0.31-2.49,0.31-5.23
			C202.81,50.85,202.8,40.83,202.79,30.82z"/>
		<path d="M238.65,34.81c-3.68-0.36-5.51-0.51-9.22-0.73c-0.01-1.6-0.01-2.38-0.02-3.92c-0.02-3.27-0.12-5.17-0.31-5.96
			c-0.19-0.8-0.64-1.18-1.36-1.18c-0.59,0-1.02,0.35-1.31,1.07c-0.29,0.72-0.43,1.81-0.42,3.33c0.01,2.06,0.09,3.65,0.24,4.67
			c0.15,1.02,0.6,2.17,1.34,3.47c0.74,1.3,2.26,3.26,4.54,6.09c3.04,3.76,5.05,7.55,6.01,10.94c0.96,3.39,1.46,8.25,1.5,13.9
			c0.04,6.31-0.29,10.23-0.99,12.43c-0.7,2.2-1.9,3.29-3.59,3.71c-1.69,0.41-3.75,0.15-6.17-0.59c-2.68-0.82-5-1.92-6.93-3.58
			c-1.93-1.66-3.28-3.68-4.01-6.24c-0.74-2.56-1.11-6.46-1.13-12.12c0-1.31-0.01-1.97-0.01-3.31c3.8,0.58,5.68,0.91,9.42,1.72
			c0.01,1.85,0.01,2.77,0.02,4.56c0.02,3.8,0.15,6.09,0.39,7.19c0.24,1.1,0.71,1.73,1.41,1.94c0.75,0.22,1.27,0.05,1.56-0.56
			c0.29-0.61,0.43-2.03,0.42-4.45c-0.02-3.32-0.22-5.64-0.61-6.61c-0.39-0.99-2.46-4.22-6.17-9.16c-3.13-4.17-5.05-7.59-5.74-10.54
			c-0.7-2.95-1.05-6.36-1.06-10.13c-0.02-5.34,0.34-8.89,1.07-11.08c0.73-2.19,1.97-3.74,3.71-4.78c1.74-1.04,3.76-1.48,6.05-1.48
			c2.27,0,4.2,0.36,5.79,1.14c1.59,0.78,2.81,1.87,3.67,3.4c0.86,1.53,1.38,3.11,1.57,4.64c0.19,1.53,0.3,4.02,0.32,7.78
			C238.63,32.1,238.64,32.99,238.65,34.81z"/>
		<path d="M265.91,14.25c0.32,29.44,0.3,58.89,0.62,88.34c-4.3-3.69-6.43-5.32-10.68-8.23c0.05-1.49,0.08-2.38,0.13-4.39
			c-0.7,1.6-1.58,2.28-2.63,2.39s-2.26-0.31-3.64-1.13c-1.57-0.92-2.87-1.96-3.91-3.25c-1.04-1.29-1.81-2.72-2.32-4.46
			c-0.5-1.73-0.83-3.58-0.96-5.55c-0.14-1.97-0.23-5.95-0.27-12.91c-0.11-16.96-0.18-33.92-0.37-50.88c4.13,0,6.19,0,10.34,0
			c0.23,18.58,0.3,37.16,0.42,55.74c0.05,6.86,0.16,10.32,0.33,11.5c0.17,1.18,0.62,1.96,1.34,2.39c0.77,0.47,1.23,0.21,1.37-0.85
			s0.18-4.7,0.13-12.17c-0.13-18.87-0.19-37.74-0.43-56.61C259.57,14.21,261.66,14.22,265.91,14.25z"/>
		<path d="M295,76.78c-5.93-4.09-8.81-5.9-14.48-9.14c0.04,10.83,0.06,16.38,0.09,25.9c0.02,4.98,0.15,7.91,0.39,9.39
			c0.24,1.49,0.69,2.53,1.36,3.19c0.83,0.82,1.38,0.58,1.66-0.9c0.27-1.48,0.4-4.82,0.39-10.64c-0.02-6.18-0.03-9.53-0.04-16.3
			c4.19,2.9,6.31,4.48,10.64,7.9c0,4.24,0,6.35,0,10.42c0,8.53-0.15,14.31-0.43,17.87c-0.29,3.56-0.96,6.61-2.01,8.77
			c-1.05,2.16-2.37,2.5-3.96,1.76c-1.59-0.74-3.58-2.7-5.95-5.41c-2.3-2.62-4.31-5.23-6.06-8.05c-1.75-2.82-3.1-5.62-4.08-8.81
			c-0.98-3.19-1.66-6.59-2.05-10.36c-0.39-3.77-0.61-9.32-0.65-17.3c-0.06-10.71-0.11-21.41-0.17-32.12
			c-0.05-9.27,0.32-15.46,1.12-19.46c0.8-4,2.15-6.41,4.05-7.94c1.9-1.53,4.12-2.15,6.67-2.15c3.12,0,5.74,0.72,7.83,3.09
			c2.09,2.37,3.6,6.14,4.42,12c1.33,9.56,1.16,19.44,1.28,29.11C295,65.11,295,69.05,295,76.78z M283.68,48.72
			c-0.01-3.61-0.02-5.38-0.03-8.77c-0.02-6-0.13-9.4-0.34-10.94c-0.21-1.54-0.62-2.31-1.25-2.39c-0.77-0.11-1.24,0.42-1.42,1.63
			c-0.18,1.21-0.25,4.51-0.23,10.81c0.01,3.28,0.02,4.99,0.03,8.48C281.74,48,282.38,48.23,283.68,48.72z"/>
	</g>
</g>
<g class="st6">
	<g class="st7">
		<path d="M216.06,62.22c-0.83,4.39-2.66,7.65-5.3,9.97c-2.64,2.32-5.76,3.45-9.77,3.21c-4.14-0.25-7.51-1.84-10.01-4.79
			c-2.51-2.95-3.81-6.82-3.81-11.59c0-4.91,1.35-8.69,4.15-11.22c2.8-2.53,6.57-3.53,11.29-2.83c4.74,0.71,8.55,2.85,11.07,5.99
			C216.18,54.11,216.89,57.84,216.06,62.22z M210.52,61.31c0.47-3.46,0.03-6.19-1.4-8.22c-1.43-2.02-3.71-3.33-6.71-3.75
			c-3.03-0.42-5.38,0.24-7.02,1.91c-1.65,1.67-2.48,4.4-2.54,8.12c-0.06,3.6,0.66,6.4,2.12,8.38c1.45,1.98,3.52,3.05,6.18,3.25
			c2.63,0.19,4.66-0.55,6.26-2.18C209,67.21,210.06,64.73,210.52,61.31z"/>
		<path d="M225.79,78.92c-1.76-0.44-3.37-1.07-4.86-1.91c-1.49-0.84-2.73-1.63-3.71-2.4c0.33-2.16,0.52-3.18,0.92-5.2
			c0.11,0.02,0.16,0.03,0.26,0.05c0.36,0.38,0.78,0.81,1.27,1.28c0.48,0.48,1.14,1.01,1.97,1.6c0.73,0.52,1.54,1.03,2.43,1.52
			c0.89,0.49,1.83,0.87,2.85,1.13c0.74,0.19,1.54,0.31,2.42,0.38c0.88,0.07,1.57,0.04,2.06-0.09c0.69-0.18,1.24-0.43,1.65-0.75
			c0.4-0.31,0.76-0.86,1.08-1.62c0.41-0.99,0.42-1.81,0-2.5c-0.42-0.69-1.38-1.45-2.91-2.25c-0.59-0.31-1.37-0.7-2.35-1.15
			c-0.98-0.45-1.89-0.89-2.72-1.31c-2.17-1.12-3.67-2.35-4.47-3.77c-0.81-1.42-1.05-2.97-0.68-4.71c0.51-2.38,2.05-4.16,4.75-5.18
			c2.7-1.02,6.11-1.04,10.11,0.12c1.97,0.57,3.89,1.38,5.73,2.41c1.84,1.03,3.31,2.07,4.4,3.1c-0.74,1.92-1.14,2.82-1.98,4.57
			c-0.12-0.04-0.17-0.06-0.29-0.1c-1.01-1.33-2.32-2.56-3.9-3.64c-1.59-1.08-3.32-1.91-5.16-2.44c-1.9-0.55-3.61-0.67-5.08-0.39
			c-1.47,0.28-2.35,1.06-2.69,2.29c-0.3,1.08-0.15,1.97,0.43,2.67c0.58,0.7,1.61,1.42,3.09,2.17c0.74,0.38,1.56,0.78,2.47,1.21
			c0.91,0.43,1.84,0.91,2.81,1.44c2.1,1.15,3.44,2.46,4.03,3.85c0.59,1.39,0.38,2.93-0.5,4.69c-0.51,1.02-1.22,1.93-2.09,2.74
			c-0.87,0.8-1.87,1.43-2.98,1.88c-1.22,0.49-2.45,0.78-3.74,0.87C229.09,79.55,227.58,79.36,225.79,78.92z"/>
		<path d="M259.19,93.23c-1.63-1.11-2.44-1.64-4.08-2.66c0.64-1.11,0.99-1.64,1.71-2.66c-2.03,0.24-3.74,0.38-5.2,0.33
			s-2.87-0.42-4.27-1.14c-1.07-0.55-1.99-1.23-2.77-2.06c-0.79-0.83-1.36-1.81-1.72-2.93c-0.36-1.12-0.46-2.35-0.29-3.66
			c0.18-1.32,0.7-2.76,1.62-4.3c3.53-5.93,5.73-8.33,8.65-15.31c2.28,0.94,3.42,1.43,5.65,2.47c-2.86,6-4.88,8.16-8.39,13.13
			c-0.82,1.16-1.43,2.16-1.84,3c-0.41,0.83-0.62,1.65-0.64,2.43c-0.01,0.77,0.21,1.45,0.65,2.03c0.44,0.58,1.22,1.16,2.35,1.75
			c1.05,0.55,2.33,0.89,3.89,1.04c1.56,0.16,3.14,0.18,4.75,0.09c5.35-6.29,9.02-8.27,13.67-15.67c2.08,1.31,3.1,1.99,5.11,3.42
			C272.3,80.04,264.62,85.45,259.19,93.23z"/>
		<path d="M275.2,107.04c-3.88-3.63-6.17-7.15-6.67-10.77c-0.5-3.62,0.93-6.91,4.46-9.89c3.47-2.93,7.37-4.49,11.56-4.44
			c4.2,0.05,8.01,1.76,11.4,5.68c1.53,1.76,2.67,3.59,3.45,5.4c0.78,1.81,1.21,3.66,1.28,5.46c0.06,1.8-0.26,3.44-1,4.86
			c-0.74,1.42-1.99,2.63-3.77,3.66c-0.81,0.47-1.22,0.7-2.03,1.17c-6.27-8.26-9.64-11.8-16.72-17.94c-2.56,1.99-3.71,4.2-3.52,6.6
			c0.19,2.4,1.58,4.76,4.08,7.19c0.89,0.87,1.85,1.67,2.87,2.39c1.02,0.73,2,1.35,2.94,1.88c1,0.56,1.87,1.03,2.62,1.39
			c0.75,0.36,1.41,0.66,1.96,0.87c0.09,0.11,0.14,0.16,0.23,0.27c-1.49,1.08-2.19,1.65-3.42,2.98c-0.61-0.39-1.37-0.86-2.27-1.39
			c-0.91-0.53-1.7-1.01-2.37-1.46c-0.95-0.63-1.78-1.21-2.51-1.74C277.05,108.69,276.19,107.96,275.2,107.04z M293.03,101.64
			c0.99-0.68,1.74-1.4,2.23-2.18c0.49-0.78,0.77-1.63,0.83-2.53c0.07-0.99-0.13-2.07-0.6-3.19c-0.47-1.12-1.25-2.33-2.37-3.58
			c-1.11-1.23-2.21-2.12-3.28-2.68c-1.07-0.56-2.22-0.92-3.41-1.07c-1.19-0.14-2.32-0.05-3.34,0.21c-1.03,0.26-2.05,0.73-3.08,1.38
			C285.51,92.86,288.13,95.56,293.03,101.64z"/>
	</g>
</g>
<text transform="matrix(1 0 0 1 204.4253 25.2129)" class="st8 st9">osue</text>
</svg>
